<?xml version="1.0" encoding="utf-8"?>
<!-- Generator: Adobe Illustrator 16.0.4, SVG Export Plug-In . SVG Version: 6.00 Build 0)  -->
<!DOCTYPE svg PUBLIC "-//W3C//DTD SVG 1.1//EN" "http://www.w3.org/Graphics/SVG/1.1/DTD/svg11.dtd">
<svg version="1.1" id="Layer_1" xmlns="http://www.w3.org/2000/svg" xmlns:xlink="http://www.w3.org/1999/xlink" x="0px" y="0px"
	 width="184.252px" height="184.252px" viewBox="0 0 184.252 184.252" enable-background="new 0 0 184.252 184.252"
	 xml:space="preserve">
<g>
	<path fill="#4FBAAD" d="M2.929,171.077h15.437v-58.848c0-2.459-1.562-3.688-4.298-3.688H1.952V95.366h22.275
		c8.401,0,12.505,3.338,12.505,9.838v4.566c0,2.811-0.587,5.096-0.587,5.096h0.39c4.886-10.542,19.148-21.607,35.172-21.607
		c15.826,0,25.596,6.5,28.918,20.903h0.39c5.473-11.065,19.148-20.903,35.365-20.903c21.886,0,32.241,11.417,32.241,34.077v43.741
		h15.631v13.175h-34.584v-53.227c0-12.471-2.539-22.309-17.391-22.309c-18.562,0-29.112,17.04-29.112,34.606v27.754h15.436v13.175
		h-34.39v-53.227c0-11.593-1.954-22.309-17.192-22.309c-18.758,0-29.7,17.917-29.7,35.309v27.052h15.631v13.175H2.929V171.077z"/>
	<path fill="#50535A" d="M121.293,42.186V41.95c0,0-12.846-3.771-12.846-18.264c0-13.786,12.715-21.445,29.621-21.445
		c5.504,0,11.532,1.296,11.532,1.296l-3.276,9.308c0,0-3.8-0.706-6.946-0.706c-9.96,0-17.693,4.595-17.693,12.725
		c0,5.42,2.752,13.314,17.17,13.314h19.659V26.633h12.712v11.546h12.188v9.661h-12.188v11.312c0,18.5-12.843,29.105-33.157,29.105
		c-20.185,0-33.552-10.723-33.552-24.626C104.517,54.205,110.677,45.249,121.293,42.186 M138.068,77.77
		c12.318,0,20.445-5.892,20.445-19.088V47.84h-20.314c-13.237,0-20.445,5.657-20.445,14.848
		C117.754,71.289,125.354,77.77,138.068,77.77"/>
	<path fill="#F2928B" d="M57.64,36.362h6.253v-3.337c0-14.053-8.987-18.972-21.102-18.972c-15.632,0-28.333,8.607-28.333,8.607
		l-7.62-12.121C6.838,10.539,21.297,0,44.353,0C69.56,0,82.845,11.77,82.845,34.254v39.7c0,2.635,1.563,3.865,4.3,3.865h9.965
		v13.175H77.374c-8.793,0-12.31-3.864-12.31-9.661v-1.23c0-3.513,0.782-5.797,0.782-5.797h-0.392c0,0-8.597,18.796-32.631,18.796
		C16.412,93.101,0,84.493,0,66.225C0,38.294,41.226,36.362,57.64,36.362 M36.929,79.927c16.804,0,27.159-15.459,27.159-28.809
		v-3.689h-4.885c-8.988,0-40.056,0.352-40.056,17.391C19.147,72.724,25.595,79.927,36.929,79.927"/>
</g>
</svg>
